<svg id="Layer_1" data-name="Layer 1" xmlns="http://www.w3.org/2000/svg" viewBox="0 0 512 512"><defs><style>.cls-1{fill:#727272;}</style></defs><title>user-network-1-handdrawn</title><path class="cls-1" d="M155.13,414.27a4.09,4.09,0,0,0,.32-3.14,9.18,9.18,0,0,0-.52-1.41l-.71-1.77-1.68-3.43A45.78,45.78,0,0,0,143,392.59l0,0a48.47,48.47,0,0,0-36.91-12A47.81,47.81,0,0,0,72.25,399.3a53,53,0,0,0-6.11,10.59c-.4.79-.5,1.09-.66,1.36a7.68,7.68,0,0,0-.34.93,6.09,6.09,0,0,0-.32,2.09A11.06,11.06,0,0,0,66,419.13c1.49,3.28,4.28,5.9,5.64,8.51.72,1.36-.33,2.84-3.36,3.4s-8-.35-12.26-4.42a15.9,15.9,0,0,1-2.1-2.49,20.31,20.31,0,0,1-2.59-17,24.21,24.21,0,0,1,1.27-3.32c.43-1,.8-1.94,1.28-2.87,1-1.85,1.87-3.75,3-5.5A62.35,62.35,0,0,1,73.8,377.16a59.17,59.17,0,0,1,14.85-7.66,22.11,22.11,0,0,1-1.75-2.42,28.79,28.79,0,0,0-1.71-2.54c-5.76-6.78-7.55-16.57-5.23-25a31.92,31.92,0,0,1,15.63-19.6,28.43,28.43,0,0,1,27.83.48,26.22,26.22,0,0,1,11.91,14.47,19.44,19.44,0,0,1,.53,9.82c-.41,2-2.35,1.95-3.32.62-2.56-3.57-4.69-6.38-7-9.8a18,18,0,0,0-11.06-7.42,18.61,18.61,0,0,0-15.11,3.5,18.4,18.4,0,0,0-7.16,13.74h0a18.55,18.55,0,0,0,9.46,17.16,18.8,18.8,0,0,0,19.57-.82,28.16,28.16,0,0,0,4.77-4.32c4.28-4.32,8.1-9.11,13.44-11,2.68-1,5.62,2.95,4.35,9a7,7,0,0,1-.45,1.63A39,39,0,0,1,133,371.35a54.6,54.6,0,0,1,24,17,56.49,56.49,0,0,1,9.3,16.47,20.32,20.32,0,0,1,1.39,5.22,15.66,15.66,0,0,1-.39,5.88,17.6,17.6,0,0,1-6.17,9.41A18.2,18.2,0,0,1,149,429.12l-10.21-.39-20.38-1c-9.52-.44-19-1-28.43-1.69-5.3-.4-10.49-1.12-15.49-1.92-3.23-.51-3.41-2.46-.78-3.35a71.69,71.69,0,0,1,24.4-3.53l30.85.22h20.24l1.25-.06a7.26,7.26,0,0,0,1.95-.57A6,6,0,0,0,155.13,414.27ZM508,408.2a33,33,0,0,0,1.55-5.34l1.56-6.94c.34-2.23.47-4.38.63-6.38s.24-3.85.26-5.55-.28-3.25-.46-4.61c-.75-5.44-2-7.87-3.42-6.27-5.66,5.85-8.63,31.31-28.61,57a104.64,104.64,0,0,1-24.15,23.2c-29.8,20.66-71.25,22.33-102.69,4.37a105.18,105.18,0,0,1-21.5-16.31A107.73,107.73,0,0,1,315,419.81a97.52,97.52,0,0,1-11.92-52.06h0c1.22-28,15.22-55.25,37.67-72.23a96.84,96.84,0,0,1,138.35,20,128.51,128.51,0,0,1,22,52.74c1.22,6.3,3.14,6,3.25-2.1a96.47,96.47,0,0,0-7.65-38.07c-9.19-22.12-26.92-41-48.79-52.18-30.24-16-68.73-15.9-99.43.6a6.48,6.48,0,0,0-.12-3.43,18.15,18.15,0,0,0-1.71-3.26q-6.14-10.1-12.31-20.18l0,0c-3.19-5.23-6.4-10.45-9.57-15.69q-2-3.37-3.92-6.84l0-.06a116.51,116.51,0,0,0,42.31-55.86,33,33,0,0,0,1.55-5.34l1.56-6.94c.34-2.23.47-4.38.63-6.38s.24-3.85.26-5.55-.28-3.25-.46-4.61c-.75-5.44-2-7.87-3.42-6.27-5.66,5.85-8.63,31.31-28.61,57a104.64,104.64,0,0,1-24.15,23.2c-29.8,20.66-71.25,22.33-102.69,4.37a105.18,105.18,0,0,1-21.5-16.31,107.73,107.73,0,0,1-16.19-21.6,97.52,97.52,0,0,1-11.92-52.06h0c1.22-28,15.22-55.25,37.67-72.23a96.84,96.84,0,0,1,138.35,20,128.51,128.51,0,0,1,22,52.74c1.22,6.3,3.14,6,3.25-2.1A96.47,96.47,0,0,0,351.83,91C342.64,68.92,324.91,50,303,38.86,272,22.43,232.19,22.93,201.1,40.79c-26.46,15-46.57,41.1-53.44,71.14a108.79,108.79,0,0,0-.7,45.84,104.82,104.82,0,0,0,18.85,42c2.16,2.66,4.15,6,6.45,8.53,5.36,7.09,12.08,13.06,19.17,18.62a6,6,0,0,0-.69.47,18.16,18.16,0,0,0-2.12,3q-6.18,10.08-12.33,20.17l0,0c-3.19,5.23-6.37,10.47-9.59,15.68q-2.07,3.35-4.29,6.61a6.36,6.36,0,0,0-.87,5c-1.11-.62-2.18-1.3-3.31-1.88C127.12,259.47,87.33,260,56.25,277.83,29.78,292.8,9.68,318.93,2.8,349a108.79,108.79,0,0,0-.7,45.84,104.82,104.82,0,0,0,18.85,42c2.16,2.66,4.15,6,6.45,8.53,5.77,7.63,13.1,14,20.8,19.92,8.06,5.37,16.58,10.41,26,13.5,18.5,6.94,39,7.85,58.52,4.29,39.26-7.73,72.62-37.5,85.62-74.82a33,33,0,0,0,1.55-5.34l1.56-6.94c.34-2.23.47-4.38.63-6.38s.24-3.85.26-5.55-.28-3.25-.46-4.61c-.75-5.44-2-7.87-3.42-6.27-5.66,5.85-8.63,31.31-28.61,57a104.64,104.64,0,0,1-24.15,23.2C135.84,474,94.39,475.68,63,457.72a105.18,105.18,0,0,1-21.5-16.31,107.73,107.73,0,0,1-16.19-21.6,97.52,97.52,0,0,1-11.92-52.06h0c1.22-28,15.22-55.25,37.67-72.23a96.84,96.84,0,0,1,138.35,20,128.51,128.51,0,0,1,22,52.74c1.22,6.3,3.14,6,3.25-2.1A96.47,96.47,0,0,0,207,328.07c-8-19.21-22.42-36-40.41-47.36a13.5,13.5,0,0,0,2.23-1.56,69.79,69.79,0,0,0,5.23-5.31,85.33,85.33,0,0,0,6.78-8.07c3.38-4.88,8.11-8.9,10.14-14.66a1.74,1.74,0,0,1,.74-.76c6-3.84,7.87-10.52,12-15.63a87,87,0,0,0,15.33,7c18.5,6.94,39,7.85,58.52,4.29A110.7,110.7,0,0,0,313,232.16c.5,1.61,1,3.24,1.59,4.8a85.42,85.42,0,0,0,4.08,9.71c2.8,5.24,4.22,11.28,8.41,15.72a1.75,1.75,0,0,1,.33,1c.75,8,7.16,13,9.31,20.28-21.88,15.44-38.2,38.84-44.25,65.29a108.79,108.79,0,0,0-.7,45.84,104.82,104.82,0,0,0,18.85,42c2.16,2.66,4.15,6,6.45,8.53,5.77,7.63,13.1,14,20.8,19.92,8.06,5.37,16.58,10.41,26,13.5,18.5,6.94,39,7.85,58.52,4.29C461.65,475.28,495,445.52,508,408.2ZM442.1,416.9a7.26,7.26,0,0,1-1.95.57l-1.25.06H418.65l-30.85-.22a71.69,71.69,0,0,0-24.4,3.53c-2.63.9-2.44,2.84.78,3.35,5,.79,10.2,1.51,15.49,1.92,9.4.71,18.91,1.25,28.43,1.69l20.38,1,10.21.39a18.2,18.2,0,0,0,12.06-3.79,17.6,17.6,0,0,0,6.17-9.41,15.66,15.66,0,0,0,.39-5.88,20.32,20.32,0,0,0-1.39-5.22,56.49,56.49,0,0,0-9.3-16.47,54.6,54.6,0,0,0-24-17A39,39,0,0,0,433,357.06a7,7,0,0,0,.45-1.63c1.27-6.08-1.68-10-4.35-9-5.34,1.85-9.17,6.63-13.44,11a28.16,28.16,0,0,1-4.77,4.32,18.8,18.8,0,0,1-19.57.82,18.55,18.55,0,0,1-9.46-17.16h0a18.4,18.4,0,0,1,7.16-13.74,18.61,18.61,0,0,1,15.11-3.5,18,18,0,0,1,11.06,7.42c2.3,3.42,4.43,6.23,7,9.8,1,1.33,2.91,1.39,3.32-.62a19.44,19.44,0,0,0-.53-9.82,26.22,26.22,0,0,0-11.91-14.47,28.43,28.43,0,0,0-27.83-.48,31.92,31.92,0,0,0-15.63,19.6c-2.32,8.42-.53,18.21,5.23,25a28.79,28.79,0,0,1,1.71,2.54,22.11,22.11,0,0,0,1.75,2.42,59.18,59.18,0,0,0-14.85,7.66,62.35,62.35,0,0,0-16.87,18.29c-1.15,1.75-2,3.65-3,5.5-.48.93-.85,1.91-1.28,2.87a24.21,24.21,0,0,0-1.27,3.32,20.31,20.31,0,0,0,2.59,17,15.9,15.9,0,0,0,2.1,2.49c4.21,4.06,9.32,5,12.26,4.42s4.09-2,3.36-3.4c-1.36-2.61-4.16-5.23-5.64-8.51a11.06,11.06,0,0,1-1.21-4.85,6.09,6.09,0,0,1,.32-2.09,7.68,7.68,0,0,1,.34-.93c.17-.27.26-.57.66-1.36A53,53,0,0,1,362,399.3a47.81,47.81,0,0,1,33.84-18.71,48.47,48.47,0,0,1,36.91,12l0,0a45.78,45.78,0,0,1,9.56,11.93l1.68,3.43.71,1.77a9.18,9.18,0,0,1,.52,1.41,4.09,4.09,0,0,1-.32,3.14A6,6,0,0,1,442.1,416.9Zm-144.86-237a7.26,7.26,0,0,1-1.95.57l-1.25.06h-2.25l-18,0-30.85-.22a71.69,71.69,0,0,0-24.4,3.53c-2.63.9-2.44,2.84.78,3.35,5,.79,10.2,1.51,15.49,1.92,9.4.71,18.91,1.25,28.43,1.69l20.38,1,10.21.39a18.2,18.2,0,0,0,12.06-3.79,17.6,17.6,0,0,0,6.17-9.41,15.66,15.66,0,0,0,.39-5.88,20.32,20.32,0,0,0-1.39-5.22,56.49,56.49,0,0,0-9.3-16.47,54.6,54.6,0,0,0-24-17A39,39,0,0,0,288.17,120a7,7,0,0,0,.45-1.63c1.27-6.08-1.68-10-4.35-9-5.34,1.85-9.17,6.63-13.44,11a28.16,28.16,0,0,1-4.77,4.32,18.8,18.8,0,0,1-19.57.82A18.55,18.55,0,0,1,237,108.32h0a18.4,18.4,0,0,1,7.16-13.74,18.61,18.61,0,0,1,15.11-3.5A18,18,0,0,1,270.4,98.5c2.3,3.42,4.43,6.23,7,9.8,1,1.33,2.91,1.39,3.32-.62a19.44,19.44,0,0,0-.53-9.82A26.22,26.22,0,0,0,268.27,83.4a28.43,28.43,0,0,0-27.83-.48,31.92,31.92,0,0,0-15.63,19.6c-2.32,8.42-.53,18.21,5.23,25a28.79,28.79,0,0,1,1.71,2.54,22.11,22.11,0,0,0,1.75,2.42,59.18,59.18,0,0,0-14.85,7.66,62.35,62.35,0,0,0-16.87,18.29c-1.15,1.75-2,3.65-3,5.5-.48.93-.85,1.91-1.28,2.87a24.21,24.21,0,0,0-1.27,3.32,20.31,20.31,0,0,0,2.59,17,15.9,15.9,0,0,0,2.1,2.49c4.21,4.06,9.32,5,12.26,4.42s4.09-2,3.36-3.4c-1.36-2.61-4.16-5.23-5.64-8.51a11.06,11.06,0,0,1-1.21-4.85,6.09,6.09,0,0,1,.32-2.09,7.68,7.68,0,0,1,.34-.93c.17-.27.26-.57.66-1.36a53,53,0,0,1,6.11-10.59,47.81,47.81,0,0,1,33.84-18.71,48.47,48.47,0,0,1,36.91,12l0,0a45.78,45.78,0,0,1,9.56,11.93l1.68,3.43.71,1.77a9.18,9.18,0,0,1,.52,1.41,4.09,4.09,0,0,1-.32,3.14A6,6,0,0,1,297.24,179.86Z"/></svg>