<svg id="Layer_1" data-name="Layer 1" xmlns="http://www.w3.org/2000/svg" viewBox="0 0 512 512"><defs><style>.cls-1{fill:#727272;}</style></defs><title>data-transfer-handdrawn</title><path class="cls-1" d="M41.63,237.62l0,0L16.3,213.07,10,206.94l-3.17-3.06-1.58-1.53a17.83,17.83,0,0,1-2.51-3,16.77,16.77,0,0,1-1.38-15.65,17.05,17.05,0,0,1,2-3.51,20.22,20.22,0,0,1,2.3-2.53l3.17-3.06,50.72-49L84.9,101,97.58,88.73l6.34-6.13a27.55,27.55,0,0,1,2.62-2.21,18.05,18.05,0,0,1,3.51-1.87,17,17,0,0,1,7.78-1.16A17.41,17.41,0,0,1,131,85.07a16.15,16.15,0,0,1,2.65,7.67,27.08,27.08,0,0,1,.1,2.88V143h38.79c17,0,34.22,0,51,.24,48.75.72,84.18,4.55,92.53,9.81,4.38,2.76-13.49,5.3-39.39,5.6l-7.28,0c-23.64-.48-47.48-.69-71.41-.78H118.87q0-24.85,0-49.66c-.15-6.41.45-16.74-.5-15.38a2.86,2.86,0,0,0-2.69-.71,3.29,3.29,0,0,0-.61.28,5.39,5.39,0,0,0-1,.84l-3.82,3.64c-20.39,19.39-40.83,38.47-61.36,57-3.39,3.07-7.23,6.56-10.49,9.81L16.29,185.56l-1.39,1.36-.66.65-.28.31a3.61,3.61,0,0,0-.18,4.3,5.8,5.8,0,0,0,.52.61l1.39,1.34,2.79,2.69,5.57,5.38,44.22,43.21,43.93,43.35c1.59,1.63,2.34,1.93,3.87,2.15a5.47,5.47,0,0,0,4-1.26,4.62,4.62,0,0,0,1.69-3.5l.07-7.69.19-30.89c0-7.31.06-14.63.1-21.89l67.5.64,63.39.84,50.62.75,12.62.22a18.52,18.52,0,0,0,18.23-12.31c1.42-3.69,1.06-7.89,1.22-12.09q.41-14.09.81-27.89c.17-4.53.65-9.29-1.25-13.65a20.64,20.64,0,0,0-9.09-10.31c-5.36-2.88-8.91-3-9.35-3.78-.53-.51,2.05-1.8,7.71-.53a24.46,24.46,0,0,1,17.07,16.09,25.43,25.43,0,0,1,1.25,6.5l.31,5.21.51,10.57q.45,10.78.66,22.4l0,1.46-.06,2a26.61,26.61,0,0,1-.53,4.09,27.4,27.4,0,0,1-15.58,19.28,28,28,0,0,1-9.28,2.34l-2.31.09h-5.13l-13.69,0-27.38-.07-54.76-.07-81.79,0v48c0,.37,0,.85-.06,1.76a16.62,16.62,0,0,1-3.23,9A17.59,17.59,0,0,1,114.14,303a17.33,17.33,0,0,1-8.52-3.65,31.25,31.25,0,0,1-2.47-2.24l-1.86-1.8Zm466.76,76.3c-1.18-1-1.85-1.05-1.87-.63s.56,1.39,1.24,3.1a12,12,0,0,1,.56,7.45,11.1,11.1,0,0,1-4,5.9l-5.05,4.49L489,343.35l-20.62,18.81-36.83,34.29-18.45,17.29-9.23,8.67a7.41,7.41,0,0,1-8.88,1,6.67,6.67,0,0,1-3.27-4.75c-.08-.84-.05-2.36,0-3.72l.06-4.13.22-16.54q.22-18.23.43-36.52l-82-.7-61.76-.48-30.86-.32-15.43-.16-3.86,0a18.2,18.2,0,0,1-2.89-.3,14.58,14.58,0,0,1-11.38-11.37,17.08,17.08,0,0,1-.28-2.81v-3.79l0-7.73.07-15.46,0-7.74a64.91,64.91,0,0,1,.18-7,14.32,14.32,0,0,1,10.54-11.79,23.53,23.53,0,0,1,6.36-.51l31.08-.33c4.6-.07,9.78.08,14.35.24,23.37.82,47,1.3,70.77,1.57l35.75.27,43.11.07q0-24.85,0-49.74c.16-6.5-.44-16.71.57-15.32a2.83,2.83,0,0,1,2.67-.62,3.9,3.9,0,0,1,.58.3,13.83,13.83,0,0,1,1.07,1l3.81,3.69c20.31,19.71,40.44,39.45,60.12,59.26l5.26,5c18.83,17.79,33.44,28.38,32.21,23.35-2.35-9.59-25.16-37-59.7-71.37L424.7,227.19l-9.19-8.92-4.6-4.45a17.31,17.31,0,0,0-10-4.88A17.72,17.72,0,0,0,386.15,214a16.84,16.84,0,0,0-4.76,11.36l0,2.44v46.72H261l-64.56.09A27.35,27.35,0,0,0,172,294.33a33.39,33.39,0,0,0-1.1,10.08v32h0c0,2.56-.12,4.18.15,7.89A27.57,27.57,0,0,0,188,366.86a26.82,26.82,0,0,0,9.61,2l7.3,0H381.31V390l0,27.38a17,17,0,0,0,4.26,11.47,17.6,17.6,0,0,0,10.61,5.68A17.36,17.36,0,0,0,408,432a16.91,16.91,0,0,0,2.43-1.85l1.42-1.33,2.46-2.37L453.8,388.5c12.09-11.6,23-22.56,32.93-33q7.43-7.81,14.14-15.24l6.54-7.34.79-.91c.35-.41.8-.91,1.15-1.4a14.05,14.05,0,0,0,1.75-3.22,13.63,13.63,0,0,0,.74-7A10.78,10.78,0,0,0,508.39,313.92Z"/></svg>