<svg id="Layer_1" data-name="Layer 1" xmlns="http://www.w3.org/2000/svg" viewBox="0 0 512 512"><defs><style>.cls-1{fill:#727272;}</style></defs><title>analog-phone-signal-handdrawn</title><path class="cls-1" d="M159.58,0h42.47a45,45,0,0,1,6.34.33A31.73,31.73,0,0,1,215.1,2a33.58,33.58,0,0,1,22.3,31.79h0v54l0,13.58a33.56,33.56,0,0,1-17.12,28.79,36.26,36.26,0,0,1-4,1.88l-2.06.75a16.18,16.18,0,0,1-1.58.45,1.24,1.24,0,0,1-.27,0s0,.11,0,.15l.18.74c.64,3.23,1.74,6.32,2.7,9.46A168.42,168.42,0,0,0,222.13,162a169.55,169.55,0,0,0,20.05,33.74c15.7,21,36.83,37.77,60.35,49.12A174,174,0,0,0,320.79,252l4.41,1.48,1.09.27c.58.12,1.86.54,1.52.27v-.19l.31-2.09c.2-1.1.52-2.17.79-3.25a33.4,33.4,0,0,1,29.34-23.79c2.42-.16,4.11-.13,5.77-.13h64.29l3.32.17a33.34,33.34,0,0,1,12.72,3.91,33.92,33.92,0,0,1,14.66,16,34.27,34.27,0,0,1,2.66,10.7l.13,2.74v6.38c-.07,11.34-.14,22.64-.21,33.81q-.09,6.08-.17,11.94-.06,2.93-.11,5.81a45.57,45.57,0,0,1-.59,6.68,40.11,40.11,0,0,1-11.79,22.48,39.18,39.18,0,0,1-20.06,10.3,39.8,39.8,0,0,1-10.06.52l-8.29-.61c-6.44-.52-12.17-1.09-17.31-1.71,1.52,4.11,2.66,12.9,2.85,24,0,1.6.08,3.28,0,4.83q-.29,12.82-.57,25.73c-.08,8,.13,18.63-3.32,27.87-6.19,18.71-22.06,34-41.25,39a60,60,0,0,1-29.23.56,58.94,58.94,0,0,1-13.77-5.14,59.84,59.84,0,0,1-6.34-3.84l-5.28-3.9c-13.8-10.3-27.38-20.72-40.56-31.35-2.36-1.9-5.06-4-7.57-5.77C225.53,410,203.47,393.8,181.58,377.5c-5.47-4-11-8.4-16.13-11.91A68,68,0,0,0,148,357.9a68.94,68.94,0,0,0-38,.4,71.27,71.27,0,0,0-36.35,26.12,70.55,70.55,0,0,0-13.09,43.23,72.34,72.34,0,0,0,25.8,52.56l4,3.18c9.74,7.79,19.1,15.69,28.05,23.37,5.77,5,5,6.78-.53,3.8-5.7-3.09-11.59-6.54-17.72-10.41L90.78,494l-4.83-3.3-5.42-3.84c-.89-.9-.57-.57-.64-.63.34.29-.27-.21-.41-.32L78,484.77c-1-.78-1.92-1.66-2.87-2.53a64.32,64.32,0,0,1-5.47-5.69A80.21,80.21,0,0,1,52,440.85a82.72,82.72,0,0,1,1.48-39.75,80.52,80.52,0,0,1,113.11-49.34c1.75.88,3.45,1.8,5.15,2.81a47.79,47.79,0,0,1,4.85,3.26l8.69,6.31,17.15,12.4,0,0,88.25,63.82,11,8c3.58,2.52,7.62,5.68,10.6,7.45a44.65,44.65,0,0,0,22.07,6.33,46.3,46.3,0,0,0,22.35-5.38A45.61,45.61,0,0,0,373.41,441a46.66,46.66,0,0,0,6.83-20.37l.25-3.61.08-4.19c.67-29.81,4-52.07,8.65-59.69-9.77-1.31-16.66-2.8-20.09-4.43-2.91-1.39,1.57-2.72,11.09-3.74C385,344.47,391,344,398,343.71l11.15-.4,6-.13c1.93-.06,4.5,0,5.92-.16a27.22,27.22,0,0,0,7.25-1.43,26.4,26.4,0,0,0,15-12.37,25.83,25.83,0,0,0,3.06-9.5c.33-2.92.21-8,.28-12.1q.07-12.95.15-25.94l0-13,0-6.5c0-2.14,0-4.56-.07-5.86a18.52,18.52,0,0,0-10.07-14.87,18.92,18.92,0,0,0-9.34-2h-13l-52.2,0a18.5,18.5,0,0,0-18.5,12.21,16.47,16.47,0,0,0-.67,2.23,7.88,7.88,0,0,0-.21,1.15l-.09.58a9.08,9.08,0,0,0-.11,1.6l-.26,12.38-.08,3c.2.81-.66.13-1,.17l-1.37-.35-5.46-1.38-10.9-2.76-2.65-.68-1.61-.54L316,266.07a118.92,118.92,0,0,1-12.69-4.76,114.61,114.61,0,0,1-12.24-5.74l-6-3.13-5.74-3.55a175.41,175.41,0,0,1-68.21-79.62c-1.36-2.82-2.49-6-3.65-9.1s-2.52-6.2-3.38-9.23c-1.23-4-2.68-7.88-3.71-11.9l-2-8.25-1.17-4.89-.58-2.44a5.36,5.36,0,0,1-.29-2.16c2.88,0,5.85,0,8.75-.21a14.44,14.44,0,0,0,4-.57,12.12,12.12,0,0,0,1.85-.61,20.45,20.45,0,0,0,13-17.06q.05-18.84.11-37.64l.06-19.06c-.17-6.19.55-13.32-.57-17.66a20.55,20.55,0,0,0-8.48-12.1,20,20,0,0,0-6.92-3,22.31,22.31,0,0,0-3.77-.47c-1.3-.08-3.09,0-4.61-.07l-38-.29c-6.2,0-13-.21-18.7,0a29.21,29.21,0,0,0-15.34,5.35,30.23,30.23,0,0,0-10.3,12.7,32,32,0,0,0-2.14,8,88.83,88.83,0,0,0-.29,9l-.17,38.07c-.21,8.11.4,15.94.71,23.86.26,3.95.16,7.93.72,11.85L118,133.13l1.72,11.75,2.87,11.52,2.86,11.53c1.09,3.8,2.59,7.47,3.87,11.22a254.59,254.59,0,0,0,47,82l11.1,12.47L199.61,285l6.11,5.69,6.62,5.08,13.26,10.13,14.13,8.84c2.37,1.45,4.68,3,7.1,4.37l7.45,3.72c5,2.45,9.89,5,14.91,7.37l15.5,5.95c23.44,8.31,47.55,14.08,71.25,15.49,15.23,1.28,16.23,3.28,3.6,3.55-33.36,1.38-73-5.11-114-26.22A268.07,268.07,0,0,1,138.8,226.31,273.16,273.16,0,0,1,108,144.82l-3.3-21.63c-.87-7.23-.89-14.55-1.36-21.82S103,87,103,79.92V42.76a48.92,48.92,0,0,1,.42-6.34,41.75,41.75,0,0,1,11-23.13A42.2,42.2,0,0,1,136.87.82,60.74,60.74,0,0,1,149,0ZM307.29,6.36c-6.61-1.3-11.57.13-11,3.12s2.66,5.71,6,8.28a35.36,35.36,0,0,0,5.94,3.61,54.14,54.14,0,0,0,7.4,3.55c1.87.74,3.78,1.41,5.71,2.07L327,29.33A190.79,190.79,0,0,1,391.8,72.57l0,0a191.54,191.54,0,0,1,35,49.6l2.86,5.87,2.42,6.07a103.27,103.27,0,0,1,4.36,12.3c2.56,7.57,5.1,13.83,8.9,19.17,1.41,2,3.29,1.5,3.12-1.36A111.56,111.56,0,0,0,447,150.52l-3-12.27c-1.2-4.05-2.66-8-4-12.08-2-5.72-4.64-11.23-7.1-16.83-3-5.32-5.49-11-9.06-16-11.31-17.45-24.33-34.44-41.76-46.67a20,20,0,0,1-2.71-2.48,118.9,118.9,0,0,0-32.86-22.54c-12.06-6.08-24.87-10.39-37.42-14.91A16.66,16.66,0,0,0,307.29,6.36Zm69.46,133.88a69.55,69.55,0,0,1,3.65,7.37,72,72,0,0,1,3.12,7.6,27.1,27.1,0,0,0,7.65,11.29c1.3,1.12,3.15.51,3.09-1.35a52.11,52.11,0,0,0-.87-8.9l-2.05-7.86c-.83-2.59-1.8-5.14-2.74-7.72a108,108,0,0,0-10.68-21c-7.44-11.11-15.4-22.51-26.83-30.23a8.42,8.42,0,0,1-1.67-1.69c-11.17-13.4-28.58-19.62-44-27a7,7,0,0,0-1.17-.34c-4.26-1-7.77.53-7.83,3.42-.15,5.65,4,10.5,10.49,14l7,3.25A138,138,0,0,1,354,109.42l0,0A137.76,137.76,0,0,1,376.75,140.25Zm-79.16-8.46a19.74,19.74,0,0,0,2.62,1.82,85.82,85.82,0,0,1,16,12.69l0,0a83,83,0,0,1,10.05,12.31,46.44,46.44,0,0,1,3.38,5.91c.93,1.86,2.8,2.83,5.68,3.23,1.08.15,2.83-.71,2.95-1.62a13.88,13.88,0,0,0,0-4.2,38.79,38.79,0,0,0-2.05-6.89,43.63,43.63,0,0,0-4.63-9.22c-3.33-4.74-6.07-10.44-11.44-13.45a1.74,1.74,0,0,1-.62-.86c-3.39-7.62-11.69-9.63-17.33-14.89a1.4,1.4,0,0,0-.5-.21c-1.86-.6-4.11,1.13-5,3.78C295,125.31,295.34,129.64,297.58,131.79Z"/></svg>